solid OpenSCAD_Model
  facet normal -0 0 1
    outer loop
      vertex 0 26 26
      vertex 26 0 26
      vertex 26 26 26
    endloop
  endfacet
  facet normal 0 0 1
    outer loop
      vertex 26 0 26
      vertex 0 26 26
      vertex 0 0 26
    endloop
  endfacet
  facet normal 0 0 -1
    outer loop
      vertex 0 0 0
      vertex 26 26 0
      vertex 26 0 0
    endloop
  endfacet
  facet normal -0 0 -1
    outer loop
      vertex 26 26 0
      vertex 0 0 0
      vertex 0 26 0
    endloop
  endfacet
  facet normal 0 -1 0
    outer loop
      vertex 0 0 0
      vertex 26 0 26
      vertex 0 0 26
    endloop
  endfacet
  facet normal 0 -1 -0
    outer loop
      vertex 26 0 26
      vertex 0 0 0
      vertex 26 0 0
    endloop
  endfacet
  facet normal 1 -0 0
    outer loop
      vertex 26 0 26
      vertex 26 26 0
      vertex 26 26 26
    endloop
  endfacet
  facet normal 1 0 0
    outer loop
      vertex 26 26 0
      vertex 26 0 26
      vertex 26 0 0
    endloop
  endfacet
  facet normal 0 1 -0
    outer loop
      vertex 26 26 0
      vertex 0 26 26
      vertex 26 26 26
    endloop
  endfacet
  facet normal 0 1 0
    outer loop
      vertex 0 26 26
      vertex 26 26 0
      vertex 0 26 0
    endloop
  endfacet
  facet normal -1 0 0
    outer loop
      vertex 0 0 0
      vertex 0 26 26
      vertex 0 26 0
    endloop
  endfacet
  facet normal -1 -0 0
    outer loop
      vertex 0 26 26
      vertex 0 0 0
      vertex 0 0 26
    endloop
  endfacet
endsolid OpenSCAD_Model
