solid OpenSCAD_Model
  facet normal 1 -0 0
    outer loop
      vertex 220 0 7
      vertex 220 13 0
      vertex 220 13 7
    endloop
  endfacet
  facet normal 1 0 0
    outer loop
      vertex 220 13 0
      vertex 220 0 7
      vertex 220 0 0
    endloop
  endfacet
  facet normal 0 0 1
    outer loop
      vertex 220 13 7
      vertex 218 11 7
      vertex 220 0 7
    endloop
  endfacet
  facet normal 0 0 1
    outer loop
      vertex 220 13 7
      vertex 2 11 7
      vertex 218 11 7
    endloop
  endfacet
  facet normal 0 0 1
    outer loop
      vertex 2 11 7
      vertex 0 13 7
      vertex 2 2 7
    endloop
  endfacet
  facet normal -0 0 1
    outer loop
      vertex 0 13 7
      vertex 2 11 7
      vertex 220 13 7
    endloop
  endfacet
  facet normal -0 0 1
    outer loop
      vertex 218 2 7
      vertex 220 0 7
      vertex 218 11 7
    endloop
  endfacet
  facet normal -0 0 1
    outer loop
      vertex 2 2 7
      vertex 220 0 7
      vertex 218 2 7
    endloop
  endfacet
  facet normal 0 0 1
    outer loop
      vertex 2 2 7
      vertex 0 0 7
      vertex 220 0 7
    endloop
  endfacet
  facet normal 0 0 1
    outer loop
      vertex 0 0 7
      vertex 2 2 7
      vertex 0 13 7
    endloop
  endfacet
  facet normal 0 0 -1
    outer loop
      vertex 0 0 0
      vertex 220 13 0
      vertex 220 0 0
    endloop
  endfacet
  facet normal -0 0 -1
    outer loop
      vertex 220 13 0
      vertex 0 0 0
      vertex 0 13 0
    endloop
  endfacet
  facet normal -1 0 0
    outer loop
      vertex 0 0 0
      vertex 0 13 7
      vertex 0 13 0
    endloop
  endfacet
  facet normal -1 -0 0
    outer loop
      vertex 0 13 7
      vertex 0 0 0
      vertex 0 0 7
    endloop
  endfacet
  facet normal 0 1 -0
    outer loop
      vertex 220 13 0
      vertex 0 13 7
      vertex 220 13 7
    endloop
  endfacet
  facet normal 0 1 0
    outer loop
      vertex 0 13 7
      vertex 220 13 0
      vertex 0 13 0
    endloop
  endfacet
  facet normal 0 -1 0
    outer loop
      vertex 0 0 7
      vertex 2 0 5
      vertex 220 0 7
    endloop
  endfacet
  facet normal 0 -1 0
    outer loop
      vertex 0 0 7
      vertex 2 0 4
      vertex 2 0 5
    endloop
  endfacet
  facet normal 0 -1 -0
    outer loop
      vertex 2 0 4
      vertex 0 0 0
      vertex 218 0 4
    endloop
  endfacet
  facet normal 0 -1 0
    outer loop
      vertex 0 0 0
      vertex 2 0 4
      vertex 0 0 7
    endloop
  endfacet
  facet normal 0 -1 0
    outer loop
      vertex 218 0 5
      vertex 220 0 7
      vertex 2 0 5
    endloop
  endfacet
  facet normal 0 -1 0
    outer loop
      vertex 218 0 4
      vertex 220 0 7
      vertex 218 0 5
    endloop
  endfacet
  facet normal 0 -1 0
    outer loop
      vertex 218 0 4
      vertex 220 0 0
      vertex 220 0 7
    endloop
  endfacet
  facet normal 0 -1 0
    outer loop
      vertex 220 0 0
      vertex 218 0 4
      vertex 0 0 0
    endloop
  endfacet
  facet normal -1 0 0
    outer loop
      vertex 218 11 4
      vertex 218 2 5
      vertex 218 11 7
    endloop
  endfacet
  facet normal -1 0 0
    outer loop
      vertex 218 0 4
      vertex 218 2 5
      vertex 218 11 4
    endloop
  endfacet
  facet normal -1 -0 0
    outer loop
      vertex 218 2 5
      vertex 218 0 4
      vertex 218 0 5
    endloop
  endfacet
  facet normal -1 -0 0
    outer loop
      vertex 218 11 7
      vertex 218 2 5
      vertex 218 2 7
    endloop
  endfacet
  facet normal -0 0 1
    outer loop
      vertex 2 11 4
      vertex 218 0 4
      vertex 218 11 4
    endloop
  endfacet
  facet normal 0 0 1
    outer loop
      vertex 218 0 4
      vertex 2 11 4
      vertex 2 0 4
    endloop
  endfacet
  facet normal 1 0 0
    outer loop
      vertex 2 2 5
      vertex 2 11 7
      vertex 2 2 7
    endloop
  endfacet
  facet normal 1 0 0
    outer loop
      vertex 2 11 7
      vertex 2 2 5
      vertex 2 11 4
    endloop
  endfacet
  facet normal 1 0 0
    outer loop
      vertex 2 0 4
      vertex 2 2 5
      vertex 2 0 5
    endloop
  endfacet
  facet normal 1 0 0
    outer loop
      vertex 2 2 5
      vertex 2 0 4
      vertex 2 11 4
    endloop
  endfacet
  facet normal 0 -1 0
    outer loop
      vertex 2 11 4
      vertex 218 11 7
      vertex 2 11 7
    endloop
  endfacet
  facet normal 0 -1 -0
    outer loop
      vertex 218 11 7
      vertex 2 11 4
      vertex 218 11 4
    endloop
  endfacet
  facet normal 0 1 -0
    outer loop
      vertex 218 2 5
      vertex 2 2 7
      vertex 218 2 7
    endloop
  endfacet
  facet normal 0 1 0
    outer loop
      vertex 2 2 7
      vertex 218 2 5
      vertex 2 2 5
    endloop
  endfacet
  facet normal 0 0 -1
    outer loop
      vertex 2 0 5
      vertex 218 2 5
      vertex 218 0 5
    endloop
  endfacet
  facet normal -0 0 -1
    outer loop
      vertex 218 2 5
      vertex 2 0 5
      vertex 2 2 5
    endloop
  endfacet
endsolid OpenSCAD_Model
